<svg xmlns="http://www.w3.org/2000/svg" xmlns:xlink="http://www.w3.org/1999/xlink" width="500" zoomAndPan="magnify" viewBox="0 0 375 374.999991" height="500" preserveAspectRatio="xMidYMid meet" version="1.0"><defs><g/><clipPath id="be7c23ea32"><path d="M 142.4375 122.824219 L 256.4375 122.824219 L 256.4375 236.824219 L 142.4375 236.824219 Z M 142.4375 122.824219 " clip-rule="nonzero"/></clipPath><clipPath id="64e85b38cc"><path d="M 155.550781 131.046875 L 252.308594 131.046875 L 252.308594 227.804688 L 155.550781 227.804688 Z M 155.550781 131.046875 " clip-rule="nonzero"/></clipPath></defs><rect x="-37.5" width="450" fill="#ffffff" y="-37.499999" height="449.999989" fill-opacity="1"/><rect x="-37.5" width="450" fill="#ffffff" y="-37.499999" height="449.999989" fill-opacity="1"/><g clip-path="url(#be7c23ea32)"><path fill="#ffffff" d="M 256.695312 179.953125 C 256.695312 181.824219 256.605469 183.691406 256.421875 185.554688 C 256.238281 187.417969 255.964844 189.265625 255.597656 191.101562 C 255.234375 192.933594 254.78125 194.746094 254.238281 196.539062 C 253.695312 198.328125 253.0625 200.089844 252.347656 201.816406 C 251.632812 203.546875 250.832031 205.234375 249.949219 206.886719 C 249.070312 208.535156 248.109375 210.136719 247.070312 211.695312 C 246.027344 213.25 244.914062 214.75 243.730469 216.195312 C 242.542969 217.644531 241.285156 219.027344 239.964844 220.351562 C 238.640625 221.675781 237.257812 222.929688 235.808594 224.117188 C 234.363281 225.304688 232.863281 226.417969 231.308594 227.457031 C 229.75 228.496094 228.148438 229.457031 226.5 230.335938 C 224.847656 231.21875 223.160156 232.019531 221.429688 232.734375 C 219.703125 233.449219 217.941406 234.082031 216.152344 234.625 C 214.359375 235.167969 212.546875 235.621094 210.714844 235.984375 C 208.878906 236.351562 207.03125 236.625 205.167969 236.808594 C 203.304688 236.992188 201.4375 237.082031 199.566406 237.082031 C 197.695312 237.082031 195.832031 236.992188 193.96875 236.808594 C 192.105469 236.625 190.257812 236.351562 188.421875 235.984375 C 186.585938 235.621094 184.773438 235.167969 182.984375 234.625 C 181.195312 234.082031 179.433594 233.449219 177.707031 232.734375 C 175.976562 232.019531 174.289062 231.21875 172.636719 230.335938 C 170.988281 229.457031 169.382812 228.496094 167.828125 227.457031 C 166.273438 226.417969 164.773438 225.304688 163.324219 224.117188 C 161.878906 222.929688 160.496094 221.675781 159.171875 220.351562 C 157.847656 219.027344 156.59375 217.644531 155.40625 216.195312 C 154.21875 214.75 153.105469 213.25 152.066406 211.695312 C 151.027344 210.136719 150.066406 208.535156 149.183594 206.886719 C 148.300781 205.234375 147.503906 203.546875 146.789062 201.816406 C 146.070312 200.089844 145.441406 198.328125 144.898438 196.539062 C 144.355469 194.746094 143.902344 192.933594 143.535156 191.101562 C 143.171875 189.265625 142.898438 187.417969 142.714844 185.554688 C 142.53125 183.691406 142.4375 181.824219 142.4375 179.953125 C 142.4375 178.082031 142.53125 176.21875 142.714844 174.355469 C 142.898438 172.492188 143.171875 170.644531 143.535156 168.808594 C 143.902344 166.972656 144.355469 165.160156 144.898438 163.371094 C 145.441406 161.582031 146.070312 159.820312 146.789062 158.09375 C 147.503906 156.363281 148.300781 154.675781 149.183594 153.023438 C 150.066406 151.375 151.027344 149.769531 152.066406 148.214844 C 153.105469 146.660156 154.21875 145.160156 155.40625 143.710938 C 156.59375 142.265625 157.847656 140.882812 159.171875 139.558594 C 160.496094 138.234375 161.878906 136.980469 163.324219 135.792969 C 164.773438 134.605469 166.273438 133.492188 167.828125 132.453125 C 169.382812 131.414062 170.988281 130.453125 172.636719 129.570312 C 174.289062 128.6875 175.976562 127.890625 177.707031 127.175781 C 179.433594 126.457031 181.195312 125.828125 182.984375 125.285156 C 184.773438 124.742188 186.585938 124.289062 188.421875 123.921875 C 190.257812 123.558594 192.105469 123.285156 193.96875 123.101562 C 195.832031 122.917969 197.695312 122.824219 199.566406 122.824219 C 201.4375 122.824219 203.304688 122.917969 205.167969 123.101562 C 207.03125 123.285156 208.878906 123.558594 210.714844 123.921875 C 212.546875 124.289062 214.359375 124.742188 216.152344 125.285156 C 217.941406 125.828125 219.703125 126.457031 221.429688 127.175781 C 223.160156 127.890625 224.847656 128.6875 226.5 129.570312 C 228.148438 130.453125 229.75 131.414062 231.308594 132.453125 C 232.863281 133.492188 234.363281 134.605469 235.808594 135.792969 C 237.257812 136.980469 238.640625 138.234375 239.964844 139.558594 C 241.285156 140.882812 242.542969 142.265625 243.730469 143.710938 C 244.914062 145.160156 246.027344 146.660156 247.070312 148.214844 C 248.109375 149.769531 249.070312 151.375 249.949219 153.023438 C 250.832031 154.675781 251.632812 156.363281 252.347656 158.09375 C 253.0625 159.820312 253.695312 161.582031 254.238281 163.371094 C 254.78125 165.160156 255.234375 166.972656 255.597656 168.808594 C 255.964844 170.644531 256.238281 172.492188 256.421875 174.355469 C 256.605469 176.21875 256.695312 178.082031 256.695312 179.953125 Z M 256.695312 179.953125 " fill-opacity="1" fill-rule="nonzero"/></g><path fill="#1148a6" d="M 199.566406 231.632812 C 171.046875 231.632812 147.886719 208.476562 147.886719 179.953125 C 147.886719 151.433594 171.046875 128.273438 199.566406 128.273438 C 228.089844 128.273438 251.246094 151.433594 251.246094 179.953125 C 251.246094 208.476562 228.089844 231.632812 199.566406 231.632812 Z M 199.566406 129.550781 C 171.726562 129.550781 149.164062 152.113281 149.164062 179.953125 C 149.164062 207.796875 171.8125 230.359375 199.566406 230.359375 C 227.410156 230.359375 249.96875 207.710938 249.96875 179.953125 C 249.96875 152.113281 227.410156 129.550781 199.566406 129.550781 Z M 199.566406 129.550781 " fill-opacity="1" fill-rule="nonzero"/><g clip-path="url(#64e85b38cc)"><path fill="#ffffff" d="M 252.242188 179.394531 C 252.242188 180.976562 252.167969 182.554688 252.011719 184.132812 C 251.855469 185.707031 251.625 187.273438 251.316406 188.824219 C 251.007812 190.378906 250.621094 191.910156 250.164062 193.425781 C 249.703125 194.941406 249.167969 196.429688 248.5625 197.894531 C 247.957031 199.355469 247.28125 200.785156 246.535156 202.183594 C 245.789062 203.578125 244.976562 204.9375 244.097656 206.253906 C 243.214844 207.570312 242.273438 208.839844 241.269531 210.0625 C 240.265625 211.289062 239.203125 212.460938 238.082031 213.578125 C 236.964844 214.699219 235.792969 215.761719 234.566406 216.765625 C 233.34375 217.769531 232.074219 218.710938 230.757812 219.589844 C 229.441406 220.472656 228.085938 221.285156 226.6875 222.03125 C 225.292969 222.777344 223.863281 223.453125 222.398438 224.058594 C 220.9375 224.664062 219.445312 225.199219 217.933594 225.65625 C 216.417969 226.117188 214.882812 226.5 213.328125 226.808594 C 211.777344 227.117188 210.210938 227.351562 208.636719 227.507812 C 207.0625 227.660156 205.480469 227.738281 203.898438 227.738281 C 202.3125 227.738281 200.734375 227.660156 199.160156 227.507812 C 197.582031 227.351562 196.019531 227.117188 194.464844 226.808594 C 192.914062 226.5 191.378906 226.117188 189.863281 225.65625 C 188.347656 225.199219 186.859375 224.664062 185.398438 224.058594 C 183.933594 223.453125 182.503906 222.777344 181.109375 222.03125 C 179.710938 221.285156 178.355469 220.472656 177.039062 219.589844 C 175.722656 218.710938 174.453125 217.769531 173.226562 216.765625 C 172.003906 215.761719 170.832031 214.699219 169.710938 213.578125 C 168.59375 212.460938 167.53125 211.289062 166.527344 210.0625 C 165.519531 208.839844 164.578125 207.570312 163.699219 206.253906 C 162.820312 204.9375 162.007812 203.578125 161.261719 202.183594 C 160.515625 200.785156 159.835938 199.355469 159.230469 197.894531 C 158.625 196.429688 158.09375 194.941406 157.632812 193.425781 C 157.171875 191.910156 156.789062 190.378906 156.480469 188.824219 C 156.171875 187.273438 155.941406 185.707031 155.785156 184.132812 C 155.628906 182.554688 155.550781 180.976562 155.550781 179.394531 C 155.550781 177.808594 155.628906 176.230469 155.785156 174.652344 C 155.941406 173.078125 156.171875 171.515625 156.480469 169.960938 C 156.789062 168.40625 157.171875 166.875 157.632812 165.359375 C 158.09375 163.84375 158.625 162.355469 159.230469 160.890625 C 159.835938 159.429688 160.515625 158 161.261719 156.601562 C 162.007812 155.207031 162.820312 153.847656 163.699219 152.53125 C 164.578125 151.214844 165.519531 149.945312 166.527344 148.722656 C 167.53125 147.5 168.59375 146.328125 169.710938 145.207031 C 170.832031 144.085938 172.003906 143.023438 173.226562 142.019531 C 174.453125 141.015625 175.722656 140.074219 177.039062 139.195312 C 178.355469 138.316406 179.710938 137.5 181.109375 136.753906 C 182.503906 136.007812 183.933594 135.332031 185.398438 134.726562 C 186.859375 134.121094 188.347656 133.589844 189.863281 133.128906 C 191.378906 132.667969 192.914062 132.285156 194.464844 131.976562 C 196.019531 131.667969 197.582031 131.433594 199.160156 131.277344 C 200.734375 131.125 202.3125 131.046875 203.898438 131.046875 C 205.480469 131.046875 207.0625 131.125 208.636719 131.277344 C 210.210938 131.433594 211.777344 131.667969 213.328125 131.976562 C 214.882812 132.285156 216.417969 132.667969 217.933594 133.128906 C 219.445312 133.589844 220.9375 134.121094 222.398438 134.726562 C 223.863281 135.332031 225.292969 136.007812 226.6875 136.753906 C 228.085938 137.5 229.441406 138.316406 230.757812 139.195312 C 232.074219 140.074219 233.34375 141.015625 234.566406 142.019531 C 235.792969 143.023438 236.964844 144.085938 238.082031 145.207031 C 239.203125 146.328125 240.265625 147.5 241.269531 148.722656 C 242.273438 149.945312 243.214844 151.214844 244.097656 152.53125 C 244.976562 153.847656 245.789062 155.207031 246.535156 156.601562 C 247.28125 158 247.957031 159.429688 248.5625 160.890625 C 249.167969 162.355469 249.703125 163.84375 250.164062 165.359375 C 250.621094 166.875 251.007812 168.40625 251.316406 169.960938 C 251.625 171.515625 251.855469 173.078125 252.011719 174.652344 C 252.167969 176.230469 252.242188 177.808594 252.242188 179.394531 Z M 252.242188 179.394531 " fill-opacity="1" fill-rule="nonzero"/></g><path fill="#6ba1e8" d="M 203.898438 223.128906 C 179.761719 223.128906 160.164062 203.53125 160.164062 179.394531 C 160.164062 155.253906 179.761719 135.65625 203.898438 135.65625 C 228.035156 135.65625 247.632812 155.253906 247.632812 179.394531 C 247.632812 203.53125 228.035156 223.128906 203.898438 223.128906 Z M 203.898438 136.738281 C 180.335938 136.738281 161.242188 155.832031 161.242188 179.394531 C 161.242188 202.953125 180.410156 222.046875 203.898438 222.046875 C 227.457031 222.046875 246.550781 202.882812 246.550781 179.394531 C 246.550781 155.832031 227.457031 136.738281 203.898438 136.738281 Z M 203.898438 136.738281 " fill-opacity="1" fill-rule="nonzero"/><g fill="#1148a6" fill-opacity="1"><g transform="translate(175.97854, 213.421171)"><g><path d="M 0.421875 -53.328125 L 0.421875 -57.859375 L 27.390625 -57.859375 L 27.390625 -53.328125 L 26.03125 -53.328125 C 23.851562 -53.328125 22.226562 -52.90625 21.15625 -52.0625 C 20.082031 -51.21875 19.546875 -49.898438 19.546875 -48.109375 C 19.546875 -47.503906 19.613281 -46.894531 19.75 -46.28125 C 19.894531 -45.664062 20.109375 -44.957031 20.390625 -44.15625 L 27.71875 -23.765625 C 28.175781 -22.492188 28.648438 -21.09375 29.140625 -19.5625 C 29.628906 -18.039062 30.09375 -16.539062 30.53125 -15.0625 C 30.96875 -13.59375 31.363281 -12.195312 31.71875 -10.875 C 32.070312 -9.5625 32.316406 -8.445312 32.453125 -7.53125 L 32.828125 -7.53125 C 33.003906 -8.300781 33.289062 -9.257812 33.6875 -10.40625 C 34.09375 -11.550781 34.550781 -12.796875 35.0625 -14.140625 C 35.570312 -15.492188 36.097656 -16.875 36.640625 -18.28125 C 37.191406 -19.6875 37.710938 -21.039062 38.203125 -22.34375 L 45.9375 -43.359375 C 46.289062 -44.242188 46.546875 -45.085938 46.703125 -45.890625 C 46.867188 -46.703125 46.953125 -47.40625 46.953125 -48 C 46.953125 -49.863281 46.363281 -51.21875 45.1875 -52.0625 C 44.007812 -52.90625 42.222656 -53.328125 39.828125 -53.328125 L 39.046875 -53.328125 L 39.046875 -57.859375 L 62.171875 -57.859375 L 62.171875 -53.328125 L 60.859375 -53.328125 C 59.804688 -53.328125 58.910156 -53.210938 58.171875 -52.984375 C 57.429688 -52.753906 56.757812 -52.320312 56.15625 -51.6875 C 55.5625 -51.050781 54.992188 -50.1875 54.453125 -49.09375 C 53.910156 -48.007812 53.304688 -46.609375 52.640625 -44.890625 L 35.625 0 L 25.765625 0 L 8.4375 -47.578125 C 8.007812 -48.703125 7.566406 -49.632812 7.109375 -50.375 C 6.648438 -51.113281 6.125 -51.703125 5.53125 -52.140625 C 4.9375 -52.578125 4.25 -52.882812 3.46875 -53.0625 C 2.695312 -53.238281 1.785156 -53.328125 0.734375 -53.328125 Z M 0.421875 -53.328125 "/></g></g></g><g fill="#1148a6" fill-opacity="1"><g transform="translate(124.481553, 248.165623)"><g><path d="M 9.46875 -9 C 9.46875 -8.625 9.414062 -8.289062 9.3125 -8 C 9.207031 -7.71875 9.0625 -7.46875 8.875 -7.25 C 8.6875 -7.039062 8.460938 -6.863281 8.203125 -6.71875 C 7.953125 -6.570312 7.679688 -6.453125 7.390625 -6.359375 L 7.390625 -6.296875 C 7.773438 -6.234375 8.125 -6.117188 8.4375 -5.953125 C 8.757812 -5.796875 9.03125 -5.585938 9.25 -5.328125 C 9.476562 -5.078125 9.65625 -4.773438 9.78125 -4.421875 C 9.90625 -4.078125 9.96875 -3.6875 9.96875 -3.25 C 9.96875 -2.164062 9.613281 -1.351562 8.90625 -0.8125 C 8.195312 -0.269531 7.113281 0 5.65625 0 L 0.640625 0 L 0.640625 -0.703125 L 0.859375 -0.703125 C 1.046875 -0.703125 1.222656 -0.710938 1.390625 -0.734375 C 1.554688 -0.765625 1.703125 -0.820312 1.828125 -0.90625 C 1.953125 -1 2.050781 -1.125 2.125 -1.28125 C 2.195312 -1.4375 2.234375 -1.648438 2.234375 -1.921875 L 2.234375 -10.171875 C 2.234375 -10.410156 2.195312 -10.601562 2.125 -10.75 C 2.050781 -10.90625 1.953125 -11.023438 1.828125 -11.109375 C 1.703125 -11.191406 1.554688 -11.242188 1.390625 -11.265625 C 1.222656 -11.296875 1.046875 -11.3125 0.859375 -11.3125 L 0.640625 -11.3125 L 0.640625 -12.015625 L 5.15625 -12.015625 C 6.613281 -12.015625 7.695312 -11.769531 8.40625 -11.28125 C 9.113281 -10.800781 9.46875 -10.039062 9.46875 -9 Z M 3.9375 -0.84375 L 5.578125 -0.84375 C 6.046875 -0.84375 6.441406 -0.882812 6.765625 -0.96875 C 7.097656 -1.050781 7.367188 -1.191406 7.578125 -1.390625 C 7.785156 -1.585938 7.9375 -1.84375 8.03125 -2.15625 C 8.125 -2.46875 8.171875 -2.847656 8.171875 -3.296875 C 8.171875 -3.734375 8.128906 -4.113281 8.046875 -4.4375 C 7.960938 -4.757812 7.820312 -5.023438 7.625 -5.234375 C 7.425781 -5.453125 7.160156 -5.613281 6.828125 -5.71875 C 6.503906 -5.820312 6.097656 -5.875 5.609375 -5.875 L 3.9375 -5.875 Z M 3.9375 -6.71875 L 5.109375 -6.71875 C 5.597656 -6.71875 6.003906 -6.757812 6.328125 -6.84375 C 6.660156 -6.925781 6.925781 -7.0625 7.125 -7.25 C 7.320312 -7.4375 7.460938 -7.671875 7.546875 -7.953125 C 7.628906 -8.242188 7.671875 -8.59375 7.671875 -9 C 7.671875 -9.414062 7.625 -9.757812 7.53125 -10.03125 C 7.4375 -10.3125 7.285156 -10.535156 7.078125 -10.703125 C 6.867188 -10.878906 6.597656 -11 6.265625 -11.0625 C 5.941406 -11.132812 5.539062 -11.171875 5.0625 -11.171875 L 3.9375 -11.171875 Z M 3.9375 -6.71875 "/></g></g><g transform="translate(135.483523, 248.165623)"><g><path d="M 8.859375 -1.828125 C 8.859375 -1.585938 8.894531 -1.390625 8.96875 -1.234375 C 9.050781 -1.085938 9.15625 -0.972656 9.28125 -0.890625 C 9.40625 -0.816406 9.550781 -0.765625 9.71875 -0.734375 C 9.882812 -0.710938 10.0625 -0.703125 10.25 -0.703125 L 10.296875 -0.703125 L 10.296875 0 L 7.625 0 L 7.40625 -1.359375 L 7.328125 -1.359375 C 7.148438 -1.046875 6.957031 -0.789062 6.75 -0.59375 C 6.550781 -0.394531 6.335938 -0.238281 6.109375 -0.125 C 5.878906 -0.0078125 5.632812 0.0664062 5.375 0.109375 C 5.125 0.148438 4.863281 0.171875 4.59375 0.171875 C 4.144531 0.171875 3.75 0.109375 3.40625 -0.015625 C 3.0625 -0.148438 2.769531 -0.347656 2.53125 -0.609375 C 2.300781 -0.878906 2.125 -1.222656 2 -1.640625 C 1.875 -2.054688 1.8125 -2.550781 1.8125 -3.125 L 1.8125 -7.171875 C 1.8125 -7.410156 1.773438 -7.601562 1.703125 -7.75 C 1.628906 -7.90625 1.53125 -8.023438 1.40625 -8.109375 C 1.28125 -8.191406 1.132812 -8.242188 0.96875 -8.265625 C 0.800781 -8.296875 0.625 -8.3125 0.4375 -8.3125 L 0.390625 -8.3125 L 0.390625 -9.015625 L 3.40625 -9.015625 L 3.40625 -3.21875 C 3.40625 -2.84375 3.429688 -2.515625 3.484375 -2.234375 C 3.546875 -1.953125 3.644531 -1.710938 3.78125 -1.515625 C 3.914062 -1.316406 4.09375 -1.164062 4.3125 -1.0625 C 4.539062 -0.957031 4.828125 -0.90625 5.171875 -0.90625 C 5.546875 -0.90625 5.863281 -0.972656 6.125 -1.109375 C 6.394531 -1.242188 6.613281 -1.425781 6.78125 -1.65625 C 6.957031 -1.894531 7.082031 -2.179688 7.15625 -2.515625 C 7.238281 -2.859375 7.28125 -3.226562 7.28125 -3.625 L 7.28125 -7.09375 C 7.28125 -7.363281 7.242188 -7.578125 7.171875 -7.734375 C 7.097656 -7.898438 7 -8.023438 6.875 -8.109375 C 6.757812 -8.191406 6.617188 -8.242188 6.453125 -8.265625 C 6.285156 -8.296875 6.101562 -8.3125 5.90625 -8.3125 L 5.859375 -8.3125 L 5.859375 -9.015625 L 8.859375 -9.015625 Z M 8.859375 -1.828125 "/></g></g><g transform="translate(146.165047, 248.165623)"><g><path d="M 0.609375 -0.703125 C 0.796875 -0.703125 0.972656 -0.710938 1.140625 -0.734375 C 1.304688 -0.765625 1.453125 -0.816406 1.578125 -0.890625 C 1.703125 -0.972656 1.800781 -1.085938 1.875 -1.234375 C 1.945312 -1.390625 1.984375 -1.585938 1.984375 -1.828125 L 1.984375 -7.171875 C 1.984375 -7.410156 1.945312 -7.601562 1.875 -7.75 C 1.800781 -7.90625 1.703125 -8.023438 1.578125 -8.109375 C 1.453125 -8.191406 1.304688 -8.242188 1.140625 -8.265625 C 0.972656 -8.296875 0.796875 -8.3125 0.609375 -8.3125 L 0.5625 -8.3125 L 0.5625 -9.015625 L 3.5625 -9.015625 L 3.5625 -1.921875 C 3.5625 -1.648438 3.597656 -1.4375 3.671875 -1.28125 C 3.742188 -1.125 3.84375 -1 3.96875 -0.90625 C 4.09375 -0.820312 4.238281 -0.765625 4.40625 -0.734375 C 4.582031 -0.710938 4.765625 -0.703125 4.953125 -0.703125 L 5.171875 -0.703125 L 5.171875 0 L 0.390625 0 L 0.390625 -0.703125 Z M 1.75 -11.75 C 1.75 -11.945312 1.769531 -12.109375 1.8125 -12.234375 C 1.863281 -12.367188 1.929688 -12.476562 2.015625 -12.5625 C 2.109375 -12.644531 2.210938 -12.703125 2.328125 -12.734375 C 2.441406 -12.765625 2.570312 -12.78125 2.71875 -12.78125 C 2.84375 -12.78125 2.960938 -12.765625 3.078125 -12.734375 C 3.191406 -12.703125 3.289062 -12.644531 3.375 -12.5625 C 3.46875 -12.476562 3.539062 -12.367188 3.59375 -12.234375 C 3.644531 -12.109375 3.671875 -11.945312 3.671875 -11.75 C 3.671875 -11.550781 3.644531 -11.382812 3.59375 -11.25 C 3.539062 -11.125 3.46875 -11.019531 3.375 -10.9375 C 3.289062 -10.851562 3.191406 -10.789062 3.078125 -10.75 C 2.960938 -10.71875 2.84375 -10.703125 2.71875 -10.703125 C 2.570312 -10.703125 2.441406 -10.71875 2.328125 -10.75 C 2.210938 -10.789062 2.109375 -10.851562 2.015625 -10.9375 C 1.929688 -11.019531 1.863281 -11.125 1.8125 -11.25 C 1.769531 -11.382812 1.75 -11.550781 1.75 -11.75 Z M 1.75 -11.75 "/></g></g><g transform="translate(151.546892, 248.165623)"><g><path d="M 0.4375 -0.703125 C 0.625 -0.703125 0.800781 -0.710938 0.96875 -0.734375 C 1.132812 -0.765625 1.28125 -0.820312 1.40625 -0.90625 C 1.53125 -1 1.628906 -1.125 1.703125 -1.28125 C 1.773438 -1.4375 1.8125 -1.648438 1.8125 -1.921875 L 1.8125 -10.9375 C 1.8125 -11.1875 1.773438 -11.382812 1.703125 -11.53125 C 1.628906 -11.6875 1.53125 -11.800781 1.40625 -11.875 C 1.28125 -11.957031 1.132812 -12.007812 0.96875 -12.03125 C 0.800781 -12.0625 0.625 -12.078125 0.4375 -12.078125 L 0.21875 -12.078125 L 0.21875 -12.78125 L 3.40625 -12.78125 L 3.40625 -1.921875 C 3.40625 -1.648438 3.4375 -1.4375 3.5 -1.28125 C 3.570312 -1.125 3.671875 -1 3.796875 -0.90625 C 3.929688 -0.820312 4.082031 -0.765625 4.25 -0.734375 C 4.414062 -0.710938 4.59375 -0.703125 4.78125 -0.703125 L 5 -0.703125 L 5 0 L 0.21875 0 L 0.21875 -0.703125 Z M 0.4375 -0.703125 "/></g></g><g transform="translate(156.764406, 248.165623)"><g><path d="M 8.515625 -1.84375 C 8.515625 -1.601562 8.550781 -1.40625 8.625 -1.25 C 8.695312 -1.101562 8.796875 -0.988281 8.921875 -0.90625 C 9.046875 -0.820312 9.191406 -0.765625 9.359375 -0.734375 C 9.523438 -0.710938 9.703125 -0.703125 9.890625 -0.703125 L 10.03125 -0.703125 L 10.03125 0 L 7.1875 0 L 7 -1.515625 L 6.9375 -1.515625 C 6.8125 -1.253906 6.664062 -1.019531 6.5 -0.8125 C 6.34375 -0.613281 6.160156 -0.441406 5.953125 -0.296875 C 5.742188 -0.148438 5.503906 -0.0351562 5.234375 0.046875 C 4.972656 0.128906 4.679688 0.171875 4.359375 0.171875 C 3.804688 0.171875 3.316406 0.078125 2.890625 -0.109375 C 2.460938 -0.296875 2.101562 -0.578125 1.8125 -0.953125 C 1.519531 -1.335938 1.296875 -1.820312 1.140625 -2.40625 C 0.992188 -2.988281 0.921875 -3.6875 0.921875 -4.5 C 0.921875 -5.300781 0.992188 -6 1.140625 -6.59375 C 1.296875 -7.1875 1.519531 -7.675781 1.8125 -8.0625 C 2.101562 -8.445312 2.460938 -8.726562 2.890625 -8.90625 C 3.316406 -9.09375 3.804688 -9.1875 4.359375 -9.1875 C 4.679688 -9.1875 4.972656 -9.148438 5.234375 -9.078125 C 5.492188 -9.003906 5.726562 -8.898438 5.9375 -8.765625 C 6.15625 -8.640625 6.34375 -8.484375 6.5 -8.296875 C 6.664062 -8.117188 6.8125 -7.921875 6.9375 -7.703125 L 7.03125 -7.703125 C 7.019531 -7.984375 7.003906 -8.242188 6.984375 -8.484375 C 6.972656 -8.691406 6.960938 -8.894531 6.953125 -9.09375 C 6.941406 -9.300781 6.9375 -9.457031 6.9375 -9.5625 L 6.9375 -10.9375 C 6.9375 -11.1875 6.898438 -11.382812 6.828125 -11.53125 C 6.753906 -11.6875 6.648438 -11.800781 6.515625 -11.875 C 6.390625 -11.957031 6.242188 -12.007812 6.078125 -12.03125 C 5.910156 -12.0625 5.734375 -12.078125 5.546875 -12.078125 L 5.421875 -12.078125 L 5.421875 -12.78125 L 8.515625 -12.78125 Z M 4.640625 -0.90625 C 5.078125 -0.90625 5.441406 -0.976562 5.734375 -1.125 C 6.023438 -1.269531 6.257812 -1.488281 6.4375 -1.78125 C 6.625 -2.082031 6.753906 -2.457031 6.828125 -2.90625 C 6.898438 -3.351562 6.9375 -3.882812 6.9375 -4.5 C 6.9375 -5.082031 6.898438 -5.597656 6.828125 -6.046875 C 6.753906 -6.492188 6.625 -6.867188 6.4375 -7.171875 C 6.257812 -7.484375 6.023438 -7.71875 5.734375 -7.875 C 5.441406 -8.03125 5.070312 -8.109375 4.625 -8.109375 C 4.257812 -8.109375 3.941406 -8.03125 3.671875 -7.875 C 3.410156 -7.71875 3.195312 -7.484375 3.03125 -7.171875 C 2.863281 -6.867188 2.742188 -6.488281 2.671875 -6.03125 C 2.597656 -5.582031 2.5625 -5.066406 2.5625 -4.484375 C 2.5625 -3.285156 2.722656 -2.390625 3.046875 -1.796875 C 3.367188 -1.203125 3.898438 -0.90625 4.640625 -0.90625 Z M 4.640625 -0.90625 "/></g></g><g transform="translate(167.092618, 248.165623)"><g><path d="M 0.609375 -0.703125 C 0.796875 -0.703125 0.972656 -0.710938 1.140625 -0.734375 C 1.304688 -0.765625 1.453125 -0.816406 1.578125 -0.890625 C 1.703125 -0.972656 1.800781 -1.085938 1.875 -1.234375 C 1.945312 -1.390625 1.984375 -1.585938 1.984375 -1.828125 L 1.984375 -7.171875 C 1.984375 -7.410156 1.945312 -7.601562 1.875 -7.75 C 1.800781 -7.90625 1.703125 -8.023438 1.578125 -8.109375 C 1.453125 -8.191406 1.304688 -8.242188 1.140625 -8.265625 C 0.972656 -8.296875 0.796875 -8.3125 0.609375 -8.3125 L 0.5625 -8.3125 L 0.5625 -9.015625 L 3.5625 -9.015625 L 3.5625 -1.921875 C 3.5625 -1.648438 3.597656 -1.4375 3.671875 -1.28125 C 3.742188 -1.125 3.84375 -1 3.96875 -0.90625 C 4.09375 -0.820312 4.238281 -0.765625 4.40625 -0.734375 C 4.582031 -0.710938 4.765625 -0.703125 4.953125 -0.703125 L 5.171875 -0.703125 L 5.171875 0 L 0.390625 0 L 0.390625 -0.703125 Z M 1.75 -11.75 C 1.75 -11.945312 1.769531 -12.109375 1.8125 -12.234375 C 1.863281 -12.367188 1.929688 -12.476562 2.015625 -12.5625 C 2.109375 -12.644531 2.210938 -12.703125 2.328125 -12.734375 C 2.441406 -12.765625 2.570312 -12.78125 2.71875 -12.78125 C 2.84375 -12.78125 2.960938 -12.765625 3.078125 -12.734375 C 3.191406 -12.703125 3.289062 -12.644531 3.375 -12.5625 C 3.46875 -12.476562 3.539062 -12.367188 3.59375 -12.234375 C 3.644531 -12.109375 3.671875 -11.945312 3.671875 -11.75 C 3.671875 -11.550781 3.644531 -11.382812 3.59375 -11.25 C 3.539062 -11.125 3.46875 -11.019531 3.375 -10.9375 C 3.289062 -10.851562 3.191406 -10.789062 3.078125 -10.75 C 2.960938 -10.71875 2.84375 -10.703125 2.71875 -10.703125 C 2.570312 -10.703125 2.441406 -10.71875 2.328125 -10.75 C 2.210938 -10.789062 2.109375 -10.851562 2.015625 -10.9375 C 1.929688 -11.019531 1.863281 -11.125 1.8125 -11.25 C 1.769531 -11.382812 1.75 -11.550781 1.75 -11.75 Z M 1.75 -11.75 "/></g></g><g transform="translate(172.474463, 248.165623)"><g><path d="M 5 -0.703125 L 5 0 L 0.46875 0 L 0.46875 -0.703125 L 0.609375 -0.703125 C 0.796875 -0.703125 0.972656 -0.710938 1.140625 -0.734375 C 1.304688 -0.765625 1.453125 -0.820312 1.578125 -0.90625 C 1.703125 -1 1.800781 -1.125 1.875 -1.28125 C 1.945312 -1.4375 1.984375 -1.648438 1.984375 -1.921875 L 1.984375 -7.171875 C 1.984375 -7.410156 1.945312 -7.601562 1.875 -7.75 C 1.800781 -7.90625 1.703125 -8.023438 1.578125 -8.109375 C 1.453125 -8.191406 1.304688 -8.242188 1.140625 -8.265625 C 0.972656 -8.296875 0.796875 -8.3125 0.609375 -8.3125 L 0.5625 -8.3125 L 0.5625 -9.015625 L 3.28125 -9.015625 L 3.5 -7.65625 L 3.578125 -7.65625 C 3.753906 -7.96875 3.9375 -8.222656 4.125 -8.421875 C 4.320312 -8.617188 4.53125 -8.773438 4.75 -8.890625 C 4.96875 -9.003906 5.195312 -9.082031 5.4375 -9.125 C 5.6875 -9.164062 5.945312 -9.1875 6.21875 -9.1875 C 6.65625 -9.1875 7.046875 -9.117188 7.390625 -8.984375 C 7.742188 -8.859375 8.039062 -8.660156 8.28125 -8.390625 C 8.53125 -8.128906 8.71875 -7.789062 8.84375 -7.375 C 8.96875 -6.957031 9.03125 -6.460938 9.03125 -5.890625 L 9.03125 -1.921875 C 9.03125 -1.648438 9.0625 -1.4375 9.125 -1.28125 C 9.195312 -1.125 9.289062 -1 9.40625 -0.90625 C 9.519531 -0.820312 9.65625 -0.765625 9.8125 -0.734375 C 9.96875 -0.710938 10.140625 -0.703125 10.328125 -0.703125 L 10.390625 -0.703125 L 10.390625 0 L 7.453125 0 L 7.453125 -5.8125 C 7.453125 -6.175781 7.414062 -6.5 7.34375 -6.78125 C 7.28125 -7.070312 7.175781 -7.316406 7.03125 -7.515625 C 6.882812 -7.710938 6.691406 -7.859375 6.453125 -7.953125 C 6.222656 -8.054688 5.941406 -8.109375 5.609375 -8.109375 C 5.222656 -8.109375 4.898438 -8.035156 4.640625 -7.890625 C 4.378906 -7.742188 4.164062 -7.539062 4 -7.28125 C 3.84375 -7.03125 3.726562 -6.738281 3.65625 -6.40625 C 3.59375 -6.082031 3.5625 -5.738281 3.5625 -5.375 L 3.5625 -1.828125 C 3.5625 -1.585938 3.597656 -1.390625 3.671875 -1.234375 C 3.742188 -1.085938 3.84375 -0.972656 3.96875 -0.890625 C 4.101562 -0.816406 4.253906 -0.765625 4.421875 -0.734375 C 4.585938 -0.710938 4.765625 -0.703125 4.953125 -0.703125 Z M 5 -0.703125 "/></g></g><g transform="translate(183.328535, 248.165623)"><g><path d="M 8.84375 -8.671875 C 8.84375 -8.546875 8.828125 -8.429688 8.796875 -8.328125 C 8.765625 -8.222656 8.710938 -8.128906 8.640625 -8.046875 C 8.566406 -7.960938 8.472656 -7.898438 8.359375 -7.859375 C 8.242188 -7.816406 8.113281 -7.796875 7.96875 -7.796875 C 7.96875 -7.859375 7.957031 -7.921875 7.9375 -7.984375 C 7.914062 -8.046875 7.882812 -8.109375 7.84375 -8.171875 C 7.8125 -8.234375 7.757812 -8.28125 7.6875 -8.3125 C 7.613281 -8.34375 7.519531 -8.359375 7.40625 -8.359375 C 7.257812 -8.359375 7.128906 -8.34375 7.015625 -8.3125 C 6.898438 -8.28125 6.789062 -8.226562 6.6875 -8.15625 C 6.875 -7.925781 7.03125 -7.648438 7.15625 -7.328125 C 7.28125 -7.003906 7.34375 -6.601562 7.34375 -6.125 C 7.34375 -5.707031 7.273438 -5.320312 7.140625 -4.96875 C 7.015625 -4.613281 6.828125 -4.304688 6.578125 -4.046875 C 6.335938 -3.796875 6.023438 -3.597656 5.640625 -3.453125 C 5.253906 -3.304688 4.8125 -3.234375 4.3125 -3.234375 C 4.238281 -3.234375 4.160156 -3.234375 4.078125 -3.234375 C 3.992188 -3.234375 3.910156 -3.234375 3.828125 -3.234375 C 3.753906 -3.242188 3.679688 -3.25 3.609375 -3.25 C 3.535156 -3.257812 3.476562 -3.269531 3.4375 -3.28125 C 3.320312 -3.226562 3.210938 -3.164062 3.109375 -3.09375 C 3.015625 -3.03125 2.929688 -2.957031 2.859375 -2.875 C 2.785156 -2.789062 2.726562 -2.695312 2.6875 -2.59375 C 2.644531 -2.488281 2.625 -2.375 2.625 -2.25 C 2.625 -2.113281 2.648438 -2.003906 2.703125 -1.921875 C 2.753906 -1.835938 2.828125 -1.769531 2.921875 -1.71875 C 3.015625 -1.675781 3.125 -1.648438 3.25 -1.640625 C 3.375 -1.628906 3.515625 -1.625 3.671875 -1.625 L 5.578125 -1.625 C 6.078125 -1.625 6.5 -1.554688 6.84375 -1.421875 C 7.195312 -1.296875 7.484375 -1.125 7.703125 -0.90625 C 7.929688 -0.6875 8.09375 -0.421875 8.1875 -0.109375 C 8.289062 0.203125 8.34375 0.535156 8.34375 0.890625 C 8.34375 1.378906 8.253906 1.816406 8.078125 2.203125 C 7.898438 2.585938 7.628906 2.914062 7.265625 3.1875 C 6.898438 3.457031 6.4375 3.664062 5.875 3.8125 C 5.3125 3.96875 4.648438 4.046875 3.890625 4.046875 C 2.710938 4.046875 1.832031 3.828125 1.25 3.390625 C 0.675781 2.960938 0.390625 2.359375 0.390625 1.578125 C 0.390625 1.253906 0.445312 0.96875 0.5625 0.71875 C 0.675781 0.476562 0.828125 0.269531 1.015625 0.09375 C 1.210938 -0.0820312 1.4375 -0.222656 1.6875 -0.328125 C 1.945312 -0.441406 2.210938 -0.523438 2.484375 -0.578125 C 2.367188 -0.628906 2.253906 -0.691406 2.140625 -0.765625 C 2.035156 -0.847656 1.9375 -0.945312 1.84375 -1.0625 C 1.757812 -1.175781 1.691406 -1.304688 1.640625 -1.453125 C 1.585938 -1.609375 1.5625 -1.773438 1.5625 -1.953125 C 1.5625 -2.285156 1.648438 -2.570312 1.828125 -2.8125 C 2.003906 -3.0625 2.28125 -3.300781 2.65625 -3.53125 C 2.414062 -3.632812 2.203125 -3.769531 2.015625 -3.9375 C 1.828125 -4.113281 1.664062 -4.3125 1.53125 -4.53125 C 1.40625 -4.75 1.304688 -4.988281 1.234375 -5.25 C 1.171875 -5.519531 1.140625 -5.796875 1.140625 -6.078125 C 1.140625 -6.554688 1.203125 -6.988281 1.328125 -7.375 C 1.460938 -7.757812 1.660156 -8.085938 1.921875 -8.359375 C 2.191406 -8.628906 2.523438 -8.832031 2.921875 -8.96875 C 3.316406 -9.113281 3.78125 -9.1875 4.3125 -9.1875 C 4.507812 -9.1875 4.707031 -9.171875 4.90625 -9.140625 C 5.101562 -9.109375 5.285156 -9.066406 5.453125 -9.015625 C 5.617188 -8.960938 5.769531 -8.90625 5.90625 -8.84375 C 6.039062 -8.78125 6.148438 -8.710938 6.234375 -8.640625 C 6.316406 -8.722656 6.410156 -8.816406 6.515625 -8.921875 C 6.628906 -9.035156 6.753906 -9.132812 6.890625 -9.21875 C 7.023438 -9.3125 7.171875 -9.390625 7.328125 -9.453125 C 7.492188 -9.515625 7.671875 -9.546875 7.859375 -9.546875 C 8.023438 -9.546875 8.171875 -9.519531 8.296875 -9.46875 C 8.421875 -9.425781 8.519531 -9.363281 8.59375 -9.28125 C 8.675781 -9.195312 8.738281 -9.101562 8.78125 -9 C 8.820312 -8.894531 8.84375 -8.785156 8.84375 -8.671875 Z M 1.75 1.484375 C 1.75 1.722656 1.78125 1.945312 1.84375 2.15625 C 1.914062 2.375 2.03125 2.5625 2.1875 2.71875 C 2.351562 2.875 2.578125 2.992188 2.859375 3.078125 C 3.140625 3.171875 3.492188 3.21875 3.921875 3.21875 C 4.523438 3.21875 5.019531 3.164062 5.40625 3.0625 C 5.800781 2.957031 6.113281 2.8125 6.34375 2.625 C 6.570312 2.445312 6.734375 2.234375 6.828125 1.984375 C 6.921875 1.742188 6.96875 1.472656 6.96875 1.171875 C 6.96875 0.910156 6.929688 0.695312 6.859375 0.53125 C 6.785156 0.363281 6.675781 0.234375 6.53125 0.140625 C 6.382812 0.046875 6.203125 -0.015625 5.984375 -0.046875 C 5.773438 -0.0859375 5.53125 -0.109375 5.25 -0.109375 L 3.59375 -0.109375 C 3.363281 -0.109375 3.132812 -0.0859375 2.90625 -0.046875 C 2.6875 -0.00390625 2.488281 0.0703125 2.3125 0.1875 C 2.144531 0.300781 2.007812 0.460938 1.90625 0.671875 C 1.800781 0.878906 1.75 1.148438 1.75 1.484375 Z M 2.734375 -6.125 C 2.734375 -5.40625 2.847656 -4.878906 3.078125 -4.546875 C 3.316406 -4.210938 3.707031 -4.046875 4.25 -4.046875 C 4.53125 -4.046875 4.765625 -4.085938 4.953125 -4.171875 C 5.140625 -4.253906 5.289062 -4.378906 5.40625 -4.546875 C 5.53125 -4.710938 5.617188 -4.925781 5.671875 -5.1875 C 5.722656 -5.457031 5.75 -5.773438 5.75 -6.140625 C 5.75 -6.898438 5.632812 -7.457031 5.40625 -7.8125 C 5.175781 -8.175781 4.785156 -8.359375 4.234375 -8.359375 C 3.691406 -8.359375 3.304688 -8.171875 3.078125 -7.796875 C 2.847656 -7.429688 2.734375 -6.875 2.734375 -6.125 Z M 2.734375 -6.125 "/></g></g><g transform="translate(192.383182, 248.165623)"><g/></g><g transform="translate(196.75439, 248.165623)"><g><path d="M 8.515625 -1.84375 C 8.515625 -1.601562 8.550781 -1.40625 8.625 -1.25 C 8.695312 -1.101562 8.796875 -0.988281 8.921875 -0.90625 C 9.046875 -0.820312 9.191406 -0.765625 9.359375 -0.734375 C 9.523438 -0.710938 9.703125 -0.703125 9.890625 -0.703125 L 10.03125 -0.703125 L 10.03125 0 L 7.1875 0 L 7 -1.515625 L 6.9375 -1.515625 C 6.8125 -1.253906 6.664062 -1.019531 6.5 -0.8125 C 6.34375 -0.613281 6.160156 -0.441406 5.953125 -0.296875 C 5.742188 -0.148438 5.503906 -0.0351562 5.234375 0.046875 C 4.972656 0.128906 4.679688 0.171875 4.359375 0.171875 C 3.804688 0.171875 3.316406 0.078125 2.890625 -0.109375 C 2.460938 -0.296875 2.101562 -0.578125 1.8125 -0.953125 C 1.519531 -1.335938 1.296875 -1.820312 1.140625 -2.40625 C 0.992188 -2.988281 0.921875 -3.6875 0.921875 -4.5 C 0.921875 -5.300781 0.992188 -6 1.140625 -6.59375 C 1.296875 -7.1875 1.519531 -7.675781 1.8125 -8.0625 C 2.101562 -8.445312 2.460938 -8.726562 2.890625 -8.90625 C 3.316406 -9.09375 3.804688 -9.1875 4.359375 -9.1875 C 4.679688 -9.1875 4.972656 -9.148438 5.234375 -9.078125 C 5.492188 -9.003906 5.726562 -8.898438 5.9375 -8.765625 C 6.15625 -8.640625 6.34375 -8.484375 6.5 -8.296875 C 6.664062 -8.117188 6.8125 -7.921875 6.9375 -7.703125 L 7.03125 -7.703125 C 7.019531 -7.984375 7.003906 -8.242188 6.984375 -8.484375 C 6.972656 -8.691406 6.960938 -8.894531 6.953125 -9.09375 C 6.941406 -9.300781 6.9375 -9.457031 6.9375 -9.5625 L 6.9375 -10.9375 C 6.9375 -11.1875 6.898438 -11.382812 6.828125 -11.53125 C 6.753906 -11.6875 6.648438 -11.800781 6.515625 -11.875 C 6.390625 -11.957031 6.242188 -12.007812 6.078125 -12.03125 C 5.910156 -12.0625 5.734375 -12.078125 5.546875 -12.078125 L 5.421875 -12.078125 L 5.421875 -12.78125 L 8.515625 -12.78125 Z M 4.640625 -0.90625 C 5.078125 -0.90625 5.441406 -0.976562 5.734375 -1.125 C 6.023438 -1.269531 6.257812 -1.488281 6.4375 -1.78125 C 6.625 -2.082031 6.753906 -2.457031 6.828125 -2.90625 C 6.898438 -3.351562 6.9375 -3.882812 6.9375 -4.5 C 6.9375 -5.082031 6.898438 -5.597656 6.828125 -6.046875 C 6.753906 -6.492188 6.625 -6.867188 6.4375 -7.171875 C 6.257812 -7.484375 6.023438 -7.71875 5.734375 -7.875 C 5.441406 -8.03125 5.070312 -8.109375 4.625 -8.109375 C 4.257812 -8.109375 3.941406 -8.03125 3.671875 -7.875 C 3.410156 -7.71875 3.195312 -7.484375 3.03125 -7.171875 C 2.863281 -6.867188 2.742188 -6.488281 2.671875 -6.03125 C 2.597656 -5.582031 2.5625 -5.066406 2.5625 -4.484375 C 2.5625 -3.285156 2.722656 -2.390625 3.046875 -1.796875 C 3.367188 -1.203125 3.898438 -0.90625 4.640625 -0.90625 Z M 4.640625 -0.90625 "/></g></g><g transform="translate(207.082602, 248.165623)"><g><path d="M 0.609375 -0.703125 C 0.796875 -0.703125 0.972656 -0.710938 1.140625 -0.734375 C 1.304688 -0.765625 1.453125 -0.816406 1.578125 -0.890625 C 1.703125 -0.972656 1.800781 -1.085938 1.875 -1.234375 C 1.945312 -1.390625 1.984375 -1.585938 1.984375 -1.828125 L 1.984375 -7.171875 C 1.984375 -7.410156 1.945312 -7.601562 1.875 -7.75 C 1.800781 -7.90625 1.703125 -8.023438 1.578125 -8.109375 C 1.453125 -8.191406 1.304688 -8.242188 1.140625 -8.265625 C 0.972656 -8.296875 0.796875 -8.3125 0.609375 -8.3125 L 0.5625 -8.3125 L 0.5625 -9.015625 L 3.5625 -9.015625 L 3.5625 -1.921875 C 3.5625 -1.648438 3.597656 -1.4375 3.671875 -1.28125 C 3.742188 -1.125 3.84375 -1 3.96875 -0.90625 C 4.09375 -0.820312 4.238281 -0.765625 4.40625 -0.734375 C 4.582031 -0.710938 4.765625 -0.703125 4.953125 -0.703125 L 5.171875 -0.703125 L 5.171875 0 L 0.390625 0 L 0.390625 -0.703125 Z M 1.75 -11.75 C 1.75 -11.945312 1.769531 -12.109375 1.8125 -12.234375 C 1.863281 -12.367188 1.929688 -12.476562 2.015625 -12.5625 C 2.109375 -12.644531 2.210938 -12.703125 2.328125 -12.734375 C 2.441406 -12.765625 2.570312 -12.78125 2.71875 -12.78125 C 2.84375 -12.78125 2.960938 -12.765625 3.078125 -12.734375 C 3.191406 -12.703125 3.289062 -12.644531 3.375 -12.5625 C 3.46875 -12.476562 3.539062 -12.367188 3.59375 -12.234375 C 3.644531 -12.109375 3.671875 -11.945312 3.671875 -11.75 C 3.671875 -11.550781 3.644531 -11.382812 3.59375 -11.25 C 3.539062 -11.125 3.46875 -11.019531 3.375 -10.9375 C 3.289062 -10.851562 3.191406 -10.789062 3.078125 -10.75 C 2.960938 -10.71875 2.84375 -10.703125 2.71875 -10.703125 C 2.570312 -10.703125 2.441406 -10.71875 2.328125 -10.75 C 2.210938 -10.789062 2.109375 -10.851562 2.015625 -10.9375 C 1.929688 -11.019531 1.863281 -11.125 1.8125 -11.25 C 1.769531 -11.382812 1.75 -11.550781 1.75 -11.75 Z M 1.75 -11.75 "/></g></g><g transform="translate(212.464447, 248.165623)"><g><path d="M 8.84375 -8.671875 C 8.84375 -8.546875 8.828125 -8.429688 8.796875 -8.328125 C 8.765625 -8.222656 8.710938 -8.128906 8.640625 -8.046875 C 8.566406 -7.960938 8.472656 -7.898438 8.359375 -7.859375 C 8.242188 -7.816406 8.113281 -7.796875 7.96875 -7.796875 C 7.96875 -7.859375 7.957031 -7.921875 7.9375 -7.984375 C 7.914062 -8.046875 7.882812 -8.109375 7.84375 -8.171875 C 7.8125 -8.234375 7.757812 -8.28125 7.6875 -8.3125 C 7.613281 -8.34375 7.519531 -8.359375 7.40625 -8.359375 C 7.257812 -8.359375 7.128906 -8.34375 7.015625 -8.3125 C 6.898438 -8.28125 6.789062 -8.226562 6.6875 -8.15625 C 6.875 -7.925781 7.03125 -7.648438 7.15625 -7.328125 C 7.28125 -7.003906 7.34375 -6.601562 7.34375 -6.125 C 7.34375 -5.707031 7.273438 -5.320312 7.140625 -4.96875 C 7.015625 -4.613281 6.828125 -4.304688 6.578125 -4.046875 C 6.335938 -3.796875 6.023438 -3.597656 5.640625 -3.453125 C 5.253906 -3.304688 4.8125 -3.234375 4.3125 -3.234375 C 4.238281 -3.234375 4.160156 -3.234375 4.078125 -3.234375 C 3.992188 -3.234375 3.910156 -3.234375 3.828125 -3.234375 C 3.753906 -3.242188 3.679688 -3.25 3.609375 -3.25 C 3.535156 -3.257812 3.476562 -3.269531 3.4375 -3.28125 C 3.320312 -3.226562 3.210938 -3.164062 3.109375 -3.09375 C 3.015625 -3.03125 2.929688 -2.957031 2.859375 -2.875 C 2.785156 -2.789062 2.726562 -2.695312 2.6875 -2.59375 C 2.644531 -2.488281 2.625 -2.375 2.625 -2.25 C 2.625 -2.113281 2.648438 -2.003906 2.703125 -1.921875 C 2.753906 -1.835938 2.828125 -1.769531 2.921875 -1.71875 C 3.015625 -1.675781 3.125 -1.648438 3.25 -1.640625 C 3.375 -1.628906 3.515625 -1.625 3.671875 -1.625 L 5.578125 -1.625 C 6.078125 -1.625 6.5 -1.554688 6.84375 -1.421875 C 7.195312 -1.296875 7.484375 -1.125 7.703125 -0.90625 C 7.929688 -0.6875 8.09375 -0.421875 8.1875 -0.109375 C 8.289062 0.203125 8.34375 0.535156 8.34375 0.890625 C 8.34375 1.378906 8.253906 1.816406 8.078125 2.203125 C 7.898438 2.585938 7.628906 2.914062 7.265625 3.1875 C 6.898438 3.457031 6.4375 3.664062 5.875 3.8125 C 5.3125 3.96875 4.648438 4.046875 3.890625 4.046875 C 2.710938 4.046875 1.832031 3.828125 1.25 3.390625 C 0.675781 2.960938 0.390625 2.359375 0.390625 1.578125 C 0.390625 1.253906 0.445312 0.96875 0.5625 0.71875 C 0.675781 0.476562 0.828125 0.269531 1.015625 0.09375 C 1.210938 -0.0820312 1.4375 -0.222656 1.6875 -0.328125 C 1.945312 -0.441406 2.210938 -0.523438 2.484375 -0.578125 C 2.367188 -0.628906 2.253906 -0.691406 2.140625 -0.765625 C 2.035156 -0.847656 1.9375 -0.945312 1.84375 -1.0625 C 1.757812 -1.175781 1.691406 -1.304688 1.640625 -1.453125 C 1.585938 -1.609375 1.5625 -1.773438 1.5625 -1.953125 C 1.5625 -2.285156 1.648438 -2.570312 1.828125 -2.8125 C 2.003906 -3.0625 2.28125 -3.300781 2.65625 -3.53125 C 2.414062 -3.632812 2.203125 -3.769531 2.015625 -3.9375 C 1.828125 -4.113281 1.664062 -4.3125 1.53125 -4.53125 C 1.40625 -4.75 1.304688 -4.988281 1.234375 -5.25 C 1.171875 -5.519531 1.140625 -5.796875 1.140625 -6.078125 C 1.140625 -6.554688 1.203125 -6.988281 1.328125 -7.375 C 1.460938 -7.757812 1.660156 -8.085938 1.921875 -8.359375 C 2.191406 -8.628906 2.523438 -8.832031 2.921875 -8.96875 C 3.316406 -9.113281 3.78125 -9.1875 4.3125 -9.1875 C 4.507812 -9.1875 4.707031 -9.171875 4.90625 -9.140625 C 5.101562 -9.109375 5.285156 -9.066406 5.453125 -9.015625 C 5.617188 -8.960938 5.769531 -8.90625 5.90625 -8.84375 C 6.039062 -8.78125 6.148438 -8.710938 6.234375 -8.640625 C 6.316406 -8.722656 6.410156 -8.816406 6.515625 -8.921875 C 6.628906 -9.035156 6.753906 -9.132812 6.890625 -9.21875 C 7.023438 -9.3125 7.171875 -9.390625 7.328125 -9.453125 C 7.492188 -9.515625 7.671875 -9.546875 7.859375 -9.546875 C 8.023438 -9.546875 8.171875 -9.519531 8.296875 -9.46875 C 8.421875 -9.425781 8.519531 -9.363281 8.59375 -9.28125 C 8.675781 -9.195312 8.738281 -9.101562 8.78125 -9 C 8.820312 -8.894531 8.84375 -8.785156 8.84375 -8.671875 Z M 1.75 1.484375 C 1.75 1.722656 1.78125 1.945312 1.84375 2.15625 C 1.914062 2.375 2.03125 2.5625 2.1875 2.71875 C 2.351562 2.875 2.578125 2.992188 2.859375 3.078125 C 3.140625 3.171875 3.492188 3.21875 3.921875 3.21875 C 4.523438 3.21875 5.019531 3.164062 5.40625 3.0625 C 5.800781 2.957031 6.113281 2.8125 6.34375 2.625 C 6.570312 2.445312 6.734375 2.234375 6.828125 1.984375 C 6.921875 1.742188 6.96875 1.472656 6.96875 1.171875 C 6.96875 0.910156 6.929688 0.695312 6.859375 0.53125 C 6.785156 0.363281 6.675781 0.234375 6.53125 0.140625 C 6.382812 0.046875 6.203125 -0.015625 5.984375 -0.046875 C 5.773438 -0.0859375 5.53125 -0.109375 5.25 -0.109375 L 3.59375 -0.109375 C 3.363281 -0.109375 3.132812 -0.0859375 2.90625 -0.046875 C 2.6875 -0.00390625 2.488281 0.0703125 2.3125 0.1875 C 2.144531 0.300781 2.007812 0.460938 1.90625 0.671875 C 1.800781 0.878906 1.75 1.148438 1.75 1.484375 Z M 2.734375 -6.125 C 2.734375 -5.40625 2.847656 -4.878906 3.078125 -4.546875 C 3.316406 -4.210938 3.707031 -4.046875 4.25 -4.046875 C 4.53125 -4.046875 4.765625 -4.085938 4.953125 -4.171875 C 5.140625 -4.253906 5.289062 -4.378906 5.40625 -4.546875 C 5.53125 -4.710938 5.617188 -4.925781 5.671875 -5.1875 C 5.722656 -5.457031 5.75 -5.773438 5.75 -6.140625 C 5.75 -6.898438 5.632812 -7.457031 5.40625 -7.8125 C 5.175781 -8.175781 4.785156 -8.359375 4.234375 -8.359375 C 3.691406 -8.359375 3.304688 -8.171875 3.078125 -7.796875 C 2.847656 -7.429688 2.734375 -6.875 2.734375 -6.125 Z M 2.734375 -6.125 "/></g></g><g transform="translate(221.519093, 248.165623)"><g><path d="M 0.609375 -0.703125 C 0.796875 -0.703125 0.972656 -0.710938 1.140625 -0.734375 C 1.304688 -0.765625 1.453125 -0.816406 1.578125 -0.890625 C 1.703125 -0.972656 1.800781 -1.085938 1.875 -1.234375 C 1.945312 -1.390625 1.984375 -1.585938 1.984375 -1.828125 L 1.984375 -7.171875 C 1.984375 -7.410156 1.945312 -7.601562 1.875 -7.75 C 1.800781 -7.90625 1.703125 -8.023438 1.578125 -8.109375 C 1.453125 -8.191406 1.304688 -8.242188 1.140625 -8.265625 C 0.972656 -8.296875 0.796875 -8.3125 0.609375 -8.3125 L 0.5625 -8.3125 L 0.5625 -9.015625 L 3.5625 -9.015625 L 3.5625 -1.921875 C 3.5625 -1.648438 3.597656 -1.4375 3.671875 -1.28125 C 3.742188 -1.125 3.84375 -1 3.96875 -0.90625 C 4.09375 -0.820312 4.238281 -0.765625 4.40625 -0.734375 C 4.582031 -0.710938 4.765625 -0.703125 4.953125 -0.703125 L 5.171875 -0.703125 L 5.171875 0 L 0.390625 0 L 0.390625 -0.703125 Z M 1.75 -11.75 C 1.75 -11.945312 1.769531 -12.109375 1.8125 -12.234375 C 1.863281 -12.367188 1.929688 -12.476562 2.015625 -12.5625 C 2.109375 -12.644531 2.210938 -12.703125 2.328125 -12.734375 C 2.441406 -12.765625 2.570312 -12.78125 2.71875 -12.78125 C 2.84375 -12.78125 2.960938 -12.765625 3.078125 -12.734375 C 3.191406 -12.703125 3.289062 -12.644531 3.375 -12.5625 C 3.46875 -12.476562 3.539062 -12.367188 3.59375 -12.234375 C 3.644531 -12.109375 3.671875 -11.945312 3.671875 -11.75 C 3.671875 -11.550781 3.644531 -11.382812 3.59375 -11.25 C 3.539062 -11.125 3.46875 -11.019531 3.375 -10.9375 C 3.289062 -10.851562 3.191406 -10.789062 3.078125 -10.75 C 2.960938 -10.71875 2.84375 -10.703125 2.71875 -10.703125 C 2.570312 -10.703125 2.441406 -10.71875 2.328125 -10.75 C 2.210938 -10.789062 2.109375 -10.851562 2.015625 -10.9375 C 1.929688 -11.019531 1.863281 -11.125 1.8125 -11.25 C 1.769531 -11.382812 1.75 -11.550781 1.75 -11.75 Z M 1.75 -11.75 "/></g></g><g transform="translate(226.900938, 248.165623)"><g><path d="M 4.46875 -0.71875 C 4.664062 -0.71875 4.847656 -0.726562 5.015625 -0.75 C 5.191406 -0.769531 5.363281 -0.800781 5.53125 -0.84375 L 5.53125 -0.09375 C 5.46875 -0.0625 5.378906 -0.03125 5.265625 0 C 5.148438 0.03125 5.023438 0.0546875 4.890625 0.078125 C 4.753906 0.109375 4.609375 0.128906 4.453125 0.140625 C 4.304688 0.160156 4.171875 0.171875 4.046875 0.171875 C 3.617188 0.171875 3.25 0.125 2.9375 0.03125 C 2.632812 -0.0625 2.382812 -0.207031 2.1875 -0.40625 C 1.988281 -0.613281 1.84375 -0.882812 1.75 -1.21875 C 1.65625 -1.550781 1.609375 -1.957031 1.609375 -2.4375 L 1.609375 -8.0625 L 0.328125 -8.0625 L 0.328125 -8.734375 C 0.523438 -8.734375 0.742188 -8.773438 0.984375 -8.859375 C 1.234375 -8.941406 1.453125 -9.078125 1.640625 -9.265625 C 1.828125 -9.472656 1.976562 -9.71875 2.09375 -10 C 2.21875 -10.289062 2.320312 -10.65625 2.40625 -11.09375 L 3.1875 -11.09375 L 3.1875 -9.015625 L 5.375 -9.015625 L 5.375 -8.0625 L 3.1875 -8.0625 L 3.1875 -2.390625 C 3.1875 -1.816406 3.300781 -1.394531 3.53125 -1.125 C 3.757812 -0.851562 4.070312 -0.71875 4.46875 -0.71875 Z M 4.46875 -0.71875 "/></g></g><g transform="translate(232.825076, 248.165623)"><g><path d="M 2.46875 -2.4375 C 2.46875 -1.914062 2.578125 -1.523438 2.796875 -1.265625 C 3.023438 -1.003906 3.375 -0.875 3.84375 -0.875 C 4.175781 -0.875 4.476562 -0.925781 4.75 -1.03125 C 5.03125 -1.144531 5.269531 -1.300781 5.46875 -1.5 C 5.664062 -1.707031 5.816406 -1.953125 5.921875 -2.234375 C 6.023438 -2.523438 6.078125 -2.851562 6.078125 -3.21875 L 6.078125 -4.578125 L 5 -4.53125 C 4.519531 -4.507812 4.117188 -4.445312 3.796875 -4.34375 C 3.472656 -4.25 3.210938 -4.113281 3.015625 -3.9375 C 2.828125 -3.769531 2.6875 -3.5625 2.59375 -3.3125 C 2.507812 -3.0625 2.46875 -2.769531 2.46875 -2.4375 Z M 4.515625 -8.34375 C 4.191406 -8.34375 3.925781 -8.296875 3.71875 -8.203125 C 3.519531 -8.117188 3.363281 -7.992188 3.25 -7.828125 C 3.144531 -7.660156 3.070312 -7.460938 3.03125 -7.234375 C 2.988281 -7.015625 2.96875 -6.773438 2.96875 -6.515625 C 2.507812 -6.515625 2.15625 -6.59375 1.90625 -6.75 C 1.664062 -6.914062 1.546875 -7.191406 1.546875 -7.578125 C 1.546875 -7.867188 1.625 -8.113281 1.78125 -8.3125 C 1.9375 -8.519531 2.148438 -8.6875 2.421875 -8.8125 C 2.703125 -8.9375 3.023438 -9.03125 3.390625 -9.09375 C 3.765625 -9.15625 4.160156 -9.1875 4.578125 -9.1875 C 5.085938 -9.1875 5.535156 -9.132812 5.921875 -9.03125 C 6.304688 -8.925781 6.625 -8.757812 6.875 -8.53125 C 7.132812 -8.300781 7.328125 -8 7.453125 -7.625 C 7.585938 -7.257812 7.65625 -6.8125 7.65625 -6.28125 L 7.65625 -1.921875 C 7.65625 -1.679688 7.671875 -1.484375 7.703125 -1.328125 C 7.742188 -1.171875 7.804688 -1.046875 7.890625 -0.953125 C 7.972656 -0.867188 8.082031 -0.804688 8.21875 -0.765625 C 8.351562 -0.722656 8.515625 -0.703125 8.703125 -0.703125 L 8.75 -0.703125 L 8.75 0 L 6.46875 0 L 6.21875 -1.453125 L 6.078125 -1.453125 C 5.898438 -1.210938 5.726562 -0.992188 5.5625 -0.796875 C 5.394531 -0.597656 5.210938 -0.425781 5.015625 -0.28125 C 4.816406 -0.144531 4.59375 -0.0351562 4.34375 0.046875 C 4.101562 0.128906 3.804688 0.171875 3.453125 0.171875 C 3.078125 0.171875 2.726562 0.113281 2.40625 0 C 2.09375 -0.101562 1.816406 -0.265625 1.578125 -0.484375 C 1.347656 -0.710938 1.164062 -0.992188 1.03125 -1.328125 C 0.90625 -1.660156 0.84375 -2.054688 0.84375 -2.515625 C 0.84375 -3.410156 1.160156 -4.070312 1.796875 -4.5 C 2.429688 -4.9375 3.390625 -5.175781 4.671875 -5.21875 L 6.078125 -5.265625 L 6.078125 -6.28125 C 6.078125 -6.582031 6.054688 -6.859375 6.015625 -7.109375 C 5.984375 -7.367188 5.910156 -7.585938 5.796875 -7.765625 C 5.691406 -7.953125 5.535156 -8.09375 5.328125 -8.1875 C 5.128906 -8.289062 4.859375 -8.34375 4.515625 -8.34375 Z M 4.515625 -8.34375 "/></g></g><g transform="translate(242.298767, 248.165623)"><g><path d="M 0.4375 -0.703125 C 0.625 -0.703125 0.800781 -0.710938 0.96875 -0.734375 C 1.132812 -0.765625 1.28125 -0.820312 1.40625 -0.90625 C 1.53125 -1 1.628906 -1.125 1.703125 -1.28125 C 1.773438 -1.4375 1.8125 -1.648438 1.8125 -1.921875 L 1.8125 -10.9375 C 1.8125 -11.1875 1.773438 -11.382812 1.703125 -11.53125 C 1.628906 -11.6875 1.53125 -11.800781 1.40625 -11.875 C 1.28125 -11.957031 1.132812 -12.007812 0.96875 -12.03125 C 0.800781 -12.0625 0.625 -12.078125 0.4375 -12.078125 L 0.21875 -12.078125 L 0.21875 -12.78125 L 3.40625 -12.78125 L 3.40625 -1.921875 C 3.40625 -1.648438 3.4375 -1.4375 3.5 -1.28125 C 3.570312 -1.125 3.671875 -1 3.796875 -0.90625 C 3.929688 -0.820312 4.082031 -0.765625 4.25 -0.734375 C 4.414062 -0.710938 4.59375 -0.703125 4.78125 -0.703125 L 5 -0.703125 L 5 0 L 0.21875 0 L 0.21875 -0.703125 Z M 0.4375 -0.703125 "/></g></g><g transform="translate(247.51628, 248.165623)"><g/></g><g transform="translate(251.887489, 248.165623)"><g><path d="M 4.46875 -0.71875 C 4.664062 -0.71875 4.847656 -0.726562 5.015625 -0.75 C 5.191406 -0.769531 5.363281 -0.800781 5.53125 -0.84375 L 5.53125 -0.09375 C 5.46875 -0.0625 5.378906 -0.03125 5.265625 0 C 5.148438 0.03125 5.023438 0.0546875 4.890625 0.078125 C 4.753906 0.109375 4.609375 0.128906 4.453125 0.140625 C 4.304688 0.160156 4.171875 0.171875 4.046875 0.171875 C 3.617188 0.171875 3.25 0.125 2.9375 0.03125 C 2.632812 -0.0625 2.382812 -0.207031 2.1875 -0.40625 C 1.988281 -0.613281 1.84375 -0.882812 1.75 -1.21875 C 1.65625 -1.550781 1.609375 -1.957031 1.609375 -2.4375 L 1.609375 -8.0625 L 0.328125 -8.0625 L 0.328125 -8.734375 C 0.523438 -8.734375 0.742188 -8.773438 0.984375 -8.859375 C 1.234375 -8.941406 1.453125 -9.078125 1.640625 -9.265625 C 1.828125 -9.472656 1.976562 -9.71875 2.09375 -10 C 2.21875 -10.289062 2.320312 -10.65625 2.40625 -11.09375 L 3.1875 -11.09375 L 3.1875 -9.015625 L 5.375 -9.015625 L 5.375 -8.0625 L 3.1875 -8.0625 L 3.1875 -2.390625 C 3.1875 -1.816406 3.300781 -1.394531 3.53125 -1.125 C 3.757812 -0.851562 4.070312 -0.71875 4.46875 -0.71875 Z M 4.46875 -0.71875 "/></g></g><g transform="translate(257.811627, 248.165623)"><g><path d="M 5.421875 0 L 0.5625 0 L 0.5625 -0.703125 L 0.609375 -0.703125 C 0.796875 -0.703125 0.972656 -0.710938 1.140625 -0.734375 C 1.304688 -0.765625 1.453125 -0.820312 1.578125 -0.90625 C 1.703125 -1 1.800781 -1.125 1.875 -1.28125 C 1.945312 -1.4375 1.984375 -1.648438 1.984375 -1.921875 L 1.984375 -7.171875 C 1.984375 -7.410156 1.945312 -7.601562 1.875 -7.75 C 1.800781 -7.90625 1.703125 -8.023438 1.578125 -8.109375 C 1.453125 -8.191406 1.304688 -8.242188 1.140625 -8.265625 C 0.972656 -8.296875 0.796875 -8.3125 0.609375 -8.3125 L 0.5625 -8.3125 L 0.5625 -9.015625 L 3.140625 -9.015625 L 3.46875 -7.359375 L 3.546875 -7.359375 C 3.660156 -7.609375 3.773438 -7.84375 3.890625 -8.0625 C 4.003906 -8.28125 4.144531 -8.472656 4.3125 -8.640625 C 4.476562 -8.816406 4.679688 -8.953125 4.921875 -9.046875 C 5.171875 -9.140625 5.484375 -9.1875 5.859375 -9.1875 C 6.472656 -9.1875 6.925781 -9.078125 7.21875 -8.859375 C 7.519531 -8.648438 7.671875 -8.351562 7.671875 -7.96875 C 7.671875 -7.789062 7.640625 -7.625 7.578125 -7.46875 C 7.523438 -7.320312 7.4375 -7.195312 7.3125 -7.09375 C 7.1875 -6.988281 7.023438 -6.90625 6.828125 -6.84375 C 6.628906 -6.789062 6.390625 -6.765625 6.109375 -6.765625 C 6.109375 -7.222656 6.039062 -7.554688 5.90625 -7.765625 C 5.769531 -7.972656 5.539062 -8.078125 5.21875 -8.078125 C 5.007812 -8.078125 4.820312 -8.015625 4.65625 -7.890625 C 4.488281 -7.773438 4.34375 -7.617188 4.21875 -7.421875 C 4.101562 -7.234375 4 -7.015625 3.90625 -6.765625 C 3.820312 -6.515625 3.753906 -6.253906 3.703125 -5.984375 C 3.648438 -5.722656 3.613281 -5.457031 3.59375 -5.1875 C 3.570312 -4.925781 3.5625 -4.691406 3.5625 -4.484375 L 3.5625 -1.828125 C 3.5625 -1.585938 3.597656 -1.390625 3.671875 -1.234375 C 3.742188 -1.085938 3.84375 -0.972656 3.96875 -0.890625 C 4.101562 -0.816406 4.253906 -0.765625 4.421875 -0.734375 C 4.585938 -0.710938 4.765625 -0.703125 4.953125 -0.703125 L 5.421875 -0.703125 Z M 5.421875 0 "/></g></g><g transform="translate(265.740604, 248.165623)"><g><path d="M 8.859375 -1.828125 C 8.859375 -1.585938 8.894531 -1.390625 8.96875 -1.234375 C 9.050781 -1.085938 9.15625 -0.972656 9.28125 -0.890625 C 9.40625 -0.816406 9.550781 -0.765625 9.71875 -0.734375 C 9.882812 -0.710938 10.0625 -0.703125 10.25 -0.703125 L 10.296875 -0.703125 L 10.296875 0 L 7.625 0 L 7.40625 -1.359375 L 7.328125 -1.359375 C 7.148438 -1.046875 6.957031 -0.789062 6.75 -0.59375 C 6.550781 -0.394531 6.335938 -0.238281 6.109375 -0.125 C 5.878906 -0.0078125 5.632812 0.0664062 5.375 0.109375 C 5.125 0.148438 4.863281 0.171875 4.59375 0.171875 C 4.144531 0.171875 3.75 0.109375 3.40625 -0.015625 C 3.0625 -0.148438 2.769531 -0.347656 2.53125 -0.609375 C 2.300781 -0.878906 2.125 -1.222656 2 -1.640625 C 1.875 -2.054688 1.8125 -2.550781 1.8125 -3.125 L 1.8125 -7.171875 C 1.8125 -7.410156 1.773438 -7.601562 1.703125 -7.75 C 1.628906 -7.90625 1.53125 -8.023438 1.40625 -8.109375 C 1.28125 -8.191406 1.132812 -8.242188 0.96875 -8.265625 C 0.800781 -8.296875 0.625 -8.3125 0.4375 -8.3125 L 0.390625 -8.3125 L 0.390625 -9.015625 L 3.40625 -9.015625 L 3.40625 -3.21875 C 3.40625 -2.84375 3.429688 -2.515625 3.484375 -2.234375 C 3.546875 -1.953125 3.644531 -1.710938 3.78125 -1.515625 C 3.914062 -1.316406 4.09375 -1.164062 4.3125 -1.0625 C 4.539062 -0.957031 4.828125 -0.90625 5.171875 -0.90625 C 5.546875 -0.90625 5.863281 -0.972656 6.125 -1.109375 C 6.394531 -1.242188 6.613281 -1.425781 6.78125 -1.65625 C 6.957031 -1.894531 7.082031 -2.179688 7.15625 -2.515625 C 7.238281 -2.859375 7.28125 -3.226562 7.28125 -3.625 L 7.28125 -7.09375 C 7.28125 -7.363281 7.242188 -7.578125 7.171875 -7.734375 C 7.097656 -7.898438 7 -8.023438 6.875 -8.109375 C 6.757812 -8.191406 6.617188 -8.242188 6.453125 -8.265625 C 6.285156 -8.296875 6.101562 -8.3125 5.90625 -8.3125 L 5.859375 -8.3125 L 5.859375 -9.015625 L 8.859375 -9.015625 Z M 8.859375 -1.828125 "/></g></g><g transform="translate(276.422129, 248.165623)"><g><path d="M 3.53125 0.171875 C 3.113281 0.171875 2.734375 0.128906 2.390625 0.046875 C 2.046875 -0.0234375 1.753906 -0.132812 1.515625 -0.28125 C 1.273438 -0.4375 1.085938 -0.625 0.953125 -0.84375 C 0.816406 -1.0625 0.75 -1.320312 0.75 -1.625 C 0.75 -1.84375 0.785156 -2.023438 0.859375 -2.171875 C 0.941406 -2.328125 1.035156 -2.445312 1.140625 -2.53125 C 1.242188 -2.625 1.359375 -2.6875 1.484375 -2.71875 C 1.609375 -2.757812 1.71875 -2.78125 1.8125 -2.78125 C 1.8125 -2.476562 1.84375 -2.195312 1.90625 -1.9375 C 1.96875 -1.6875 2.066406 -1.460938 2.203125 -1.265625 C 2.347656 -1.078125 2.535156 -0.925781 2.765625 -0.8125 C 3.003906 -0.695312 3.289062 -0.640625 3.625 -0.640625 C 3.925781 -0.640625 4.191406 -0.675781 4.421875 -0.75 C 4.660156 -0.820312 4.859375 -0.925781 5.015625 -1.0625 C 5.171875 -1.195312 5.285156 -1.359375 5.359375 -1.546875 C 5.441406 -1.734375 5.484375 -1.941406 5.484375 -2.171875 C 5.484375 -2.378906 5.453125 -2.554688 5.390625 -2.703125 C 5.328125 -2.859375 5.21875 -3 5.0625 -3.125 C 4.90625 -3.257812 4.691406 -3.394531 4.421875 -3.53125 C 4.160156 -3.664062 3.828125 -3.820312 3.421875 -4 C 2.984375 -4.195312 2.601562 -4.382812 2.28125 -4.5625 C 1.96875 -4.738281 1.707031 -4.929688 1.5 -5.140625 C 1.289062 -5.347656 1.132812 -5.582031 1.03125 -5.84375 C 0.925781 -6.113281 0.875 -6.429688 0.875 -6.796875 C 0.875 -7.179688 0.945312 -7.519531 1.09375 -7.8125 C 1.25 -8.113281 1.460938 -8.363281 1.734375 -8.5625 C 2.015625 -8.757812 2.347656 -8.910156 2.734375 -9.015625 C 3.128906 -9.117188 3.566406 -9.171875 4.046875 -9.171875 C 4.441406 -9.171875 4.789062 -9.128906 5.09375 -9.046875 C 5.40625 -8.960938 5.664062 -8.847656 5.875 -8.703125 C 6.082031 -8.566406 6.238281 -8.40625 6.34375 -8.21875 C 6.445312 -8.03125 6.5 -7.832031 6.5 -7.625 C 6.5 -7.320312 6.390625 -7.078125 6.171875 -6.890625 C 5.960938 -6.703125 5.664062 -6.609375 5.28125 -6.609375 C 5.28125 -7.171875 5.160156 -7.609375 4.921875 -7.921875 C 4.691406 -8.234375 4.332031 -8.390625 3.84375 -8.390625 C 3.550781 -8.390625 3.300781 -8.359375 3.09375 -8.296875 C 2.894531 -8.234375 2.734375 -8.140625 2.609375 -8.015625 C 2.484375 -7.898438 2.390625 -7.757812 2.328125 -7.59375 C 2.265625 -7.425781 2.234375 -7.242188 2.234375 -7.046875 C 2.234375 -6.835938 2.269531 -6.65625 2.34375 -6.5 C 2.425781 -6.34375 2.550781 -6.195312 2.71875 -6.0625 C 2.882812 -5.925781 3.097656 -5.796875 3.359375 -5.671875 C 3.628906 -5.554688 3.953125 -5.421875 4.328125 -5.265625 C 4.765625 -5.078125 5.140625 -4.894531 5.453125 -4.71875 C 5.773438 -4.539062 6.039062 -4.34375 6.25 -4.125 C 6.457031 -3.90625 6.609375 -3.660156 6.703125 -3.390625 C 6.804688 -3.128906 6.859375 -2.820312 6.859375 -2.46875 C 6.859375 -2.03125 6.773438 -1.644531 6.609375 -1.3125 C 6.453125 -0.988281 6.226562 -0.71875 5.9375 -0.5 C 5.644531 -0.28125 5.296875 -0.113281 4.890625 0 C 4.484375 0.113281 4.03125 0.171875 3.53125 0.171875 Z M 3.53125 0.171875 "/></g></g><g transform="translate(284.014228, 248.165623)"><g><path d="M 4.46875 -0.71875 C 4.664062 -0.71875 4.847656 -0.726562 5.015625 -0.75 C 5.191406 -0.769531 5.363281 -0.800781 5.53125 -0.84375 L 5.53125 -0.09375 C 5.46875 -0.0625 5.378906 -0.03125 5.265625 0 C 5.148438 0.03125 5.023438 0.0546875 4.890625 0.078125 C 4.753906 0.109375 4.609375 0.128906 4.453125 0.140625 C 4.304688 0.160156 4.171875 0.171875 4.046875 0.171875 C 3.617188 0.171875 3.25 0.125 2.9375 0.03125 C 2.632812 -0.0625 2.382812 -0.207031 2.1875 -0.40625 C 1.988281 -0.613281 1.84375 -0.882812 1.75 -1.21875 C 1.65625 -1.550781 1.609375 -1.957031 1.609375 -2.4375 L 1.609375 -8.0625 L 0.328125 -8.0625 L 0.328125 -8.734375 C 0.523438 -8.734375 0.742188 -8.773438 0.984375 -8.859375 C 1.234375 -8.941406 1.453125 -9.078125 1.640625 -9.265625 C 1.828125 -9.472656 1.976562 -9.71875 2.09375 -10 C 2.21875 -10.289062 2.320312 -10.65625 2.40625 -11.09375 L 3.1875 -11.09375 L 3.1875 -9.015625 L 5.375 -9.015625 L 5.375 -8.0625 L 3.1875 -8.0625 L 3.1875 -2.390625 C 3.1875 -1.816406 3.300781 -1.394531 3.53125 -1.125 C 3.757812 -0.851562 4.070312 -0.71875 4.46875 -0.71875 Z M 4.46875 -0.71875 "/></g></g></g></svg>